# xmcd
#
# Track frame offsets:
#	150
#	22582
#	40296
#	64743
#	88558
#	108606
#	121654
#	137450
#	159072
#	177965
#	196976
#	213754
#	231980
#	252417
#
# Disc length: 3637 seconds
#
# Revision: 2
# Processed by: cddbd v1.5.2PL0 Copyright (c) Steve Scherf et al.
# Submitted via: EasyCDDAExtractor 16.1.0.1
#
DISCID=ac0e330e
DTITLE=BEYOND - ¹â»ÔËêÔÂ
DYEAR=1900
DGENRE=Blues
TTITLE0=光辉岁月
TTITLE1=战胜心魔
TTITLE2=灰色轨迹
TTITLE3=无泪的遗憾
TTITLE4=俾面派对
TTITLE5=相依的心
TTITLE6=可知道
TTITLE7=AMANI
TTITLE8=不再犹豫
TTITLE9=谁伴我闯荡
TTITLE10=坚持信念
TTITLE11=天真的创伤
TTITLE12=喜欢你
TTITLE13=ÔøÊÇÓµÓÐ
EXTD=
EXTT0=
EXTT1=
EXTT2=
EXTT3=
EXTT4=
EXTT5=
EXTT6=
EXTT7=
EXTT8=
EXTT9=
EXTT10=
EXTT11=
EXTT12=
EXTT13=
PLAYORDER=
